<?xml version="1.0" encoding="utf-8"?>
<!-- Generator: Adobe Illustrator 16.0.4, SVG Export Plug-In . SVG Version: 6.00 Build 0)  -->
<!DOCTYPE svg PUBLIC "-//W3C//DTD SVG 1.1//EN" "http://www.w3.org/Graphics/SVG/1.1/DTD/svg11.dtd">
<svg version="1.1" id="Layer_1" xmlns="http://www.w3.org/2000/svg" xmlns:xlink="http://www.w3.org/1999/xlink" x="0px" y="0px"
	 width="215.667px" height="51.667px" viewBox="0 0 215.667 51.667" enable-background="new 0 0 215.667 51.667"
	 xml:space="preserve">
<g>
	<path d="M204.094,41.792c-1.872,0-3.527-0.408-4.704-1.176l-1.44,2.808c1.633,0.984,3.625,1.464,6.145,1.464
		c4.488,0,6.816-1.512,6.816-4.44c0-2.472-1.656-3.695-5.545-4.128c-1.631-0.191-2.279-0.456-2.279-0.911
		c0-0.433,0.552-0.601,1.896-0.601c1.631,0,2.783,0.264,4.223,0.937l1.225-2.784c-1.488-0.769-3.527-1.225-5.592-1.225
		c-4.008,0-6.48,1.681-6.48,4.416c0,2.305,1.729,3.504,5.881,4.032c1.584,0.192,2.063,0.36,2.063,0.792
		C206.302,41.527,205.63,41.792,204.094,41.792 M185.47,44.768c0-0.264,0.12-0.479,0.433-0.72h3.336c1.68,0,2.399,0.24,2.399,0.744
		c0,0.6-1.056,0.888-3.312,0.888C186.262,45.68,185.47,45.439,185.47,44.768 M188.638,37.184c-1.151,0-1.872-0.528-1.872-1.392
		c0-0.864,0.672-1.345,1.872-1.345c1.177,0,1.824,0.48,1.824,1.345C190.462,36.68,189.789,37.184,188.638,37.184 M188.806,39.848
		c3.983,0,6.456-1.464,6.456-4.008c0-0.192-0.023-0.384-0.048-0.552h2.136v-3.072h-5.184c-0.961-0.312-2.112-0.48-3.456-0.48
		c-4.224,0-6.673,1.681-6.673,4.177c0,1.68,1.129,2.783,3.217,3.288c-2.448,0.743-3.553,1.607-3.553,2.76
		c0,0.983,0.769,1.656,2.064,1.943c-1.488,0.456-2.328,1.177-2.328,2.064c0,1.512,2.4,2.376,6.576,2.376
		c5.448,0,8.568-1.488,8.568-4.104c0-2.112-2.016-3.288-5.592-3.288h-3.289c-0.768,0-1.224-0.192-1.224-0.528
		c0-0.24,0.192-0.384,1.032-0.624C187.941,39.824,188.35,39.848,188.806,39.848 M169.006,44.768c0-0.264,0.12-0.479,0.432-0.72
		h3.336c1.68,0,2.4,0.24,2.4,0.744c0,0.6-1.057,0.888-3.312,0.888C169.798,45.68,169.006,45.439,169.006,44.768 M172.174,37.184
		c-1.152,0-1.872-0.528-1.872-1.392c0-0.864,0.672-1.345,1.872-1.345c1.176,0,1.824,0.48,1.824,1.345
		C173.998,36.68,173.326,37.184,172.174,37.184 M172.342,39.848c3.984,0,6.456-1.464,6.456-4.008c0-0.192-0.024-0.384-0.048-0.552
		h2.136v-3.072h-5.185c-0.959-0.312-2.111-0.48-3.455-0.48c-4.225,0-6.672,1.681-6.672,4.177c0,1.68,1.127,2.783,3.215,3.288
		c-2.447,0.743-3.551,1.607-3.551,2.76c0,0.983,0.768,1.656,2.063,1.943c-1.487,0.456-2.328,1.177-2.328,2.064
		c0,1.512,2.399,2.376,6.576,2.376c5.448,0,8.567-1.488,8.567-4.104c0-2.112-2.016-3.288-5.592-3.288h-3.287
		c-0.769,0-1.225-0.192-1.225-0.528c0-0.24,0.191-0.384,1.032-0.624C171.478,39.824,171.886,39.848,172.342,39.848 M162.982,31.976
		h-4.752v12.672h4.752V31.976z M162.982,26.479h-4.752v4.513h4.752V26.479z M149.062,33.032c0.984,0,1.633,0.623,1.633,1.512
		c0,0.864-0.625,1.488-1.488,1.488h-3.6v-3H149.062z M140.783,44.647h4.824v-4.896h2.327l2.929,4.896h5.328l-3.697-5.688
		c2.064-0.769,3.265-2.4,3.265-4.608c0-3.168-2.496-5.304-6.192-5.304h-8.783V44.647z M122.326,44.647V36.2
		c1.32-1.177,2.617-1.729,3.841-1.729c1.584,0,2.592,0.937,2.592,2.448v7.728h2.929v-8.063c0.023-2.76-1.801-4.561-4.633-4.561
		c-1.848,0-3.624,0.792-5.064,2.256l-0.287-2.016h-2.305v12.384H122.326z M115.654,32.264h-2.928v12.384h2.928V32.264z
		 M115.679,27.416h-3v3.288h3V27.416z M110.23,44.24l-0.455-2.16c-0.625,0.312-1.153,0.432-1.681,0.432
		c-0.936,0-1.464-0.384-1.464-1.176v-6.769h3.624v-2.159h-3.624v-3.36h-2.712l-0.192,3.36h-2.136v2.159h2.088v7.225
		c0,2.016,1.248,3.071,3.744,3.071C108.383,44.863,109.486,44.624,110.23,44.24 M95.615,44.647v-8.208
		c1.2-1.176,2.208-1.728,3.552-1.728c0.48,0,1.008,0.072,1.512,0.168l0.144-2.664c-0.528-0.096-0.984-0.145-1.392-0.145
		c-1.872,0-3.168,1.152-4.152,2.568l-0.288-2.376h-2.304v12.384H95.615z M79.559,41.071c0-1.367,1.224-1.92,4.512-2.039l1.056-0.049
		v1.416c-0.72,1.416-2.04,2.28-3.576,2.28C80.279,42.68,79.559,42.128,79.559,41.071 M82.247,34.328c1.896,0,2.88,0.792,2.88,2.279
		v0.696l-1.176,0.048c-5.184,0.216-7.464,1.488-7.464,4.057c0,2.136,1.56,3.455,4.008,3.455c2.112,0,3.864-0.983,4.896-2.615
		c0.264,1.655,1.416,2.615,3.264,2.615c0.576,0,1.128-0.096,1.896-0.359V42.68c-0.24,0.072-0.504,0.096-0.792,0.096
		c-1.176,0.024-1.68-0.552-1.68-1.823v-4.944c0-2.448-1.944-3.984-5.136-3.984c-2.304,0-4.416,0.816-6.024,2.328l1.272,1.632
		C79.367,34.903,80.831,34.328,82.247,34.328 M73.631,29.048h-3.6l-5.208,9.168l-5.04-9.168h-3.888v15.6h2.808V33.271l4.824,8.809
		h2.112l5.016-8.712v11.279h2.976V29.048z M35.808,38.792c0-3.145,2.112-5.112,5.304-5.112c1.248,0,2.256,0.312,3.168,0.984v6.407
		c-1.2,1.561-2.664,2.328-4.32,2.328C37.464,43.399,35.808,41.576,35.808,38.792 M44.28,28.088v4.848
		c-1.008-0.432-2.184-0.695-3.408-0.695c-4.032,0-6.816,2.663-6.816,6.647c0,3.552,2.232,5.952,5.52,5.952
		c1.944,0,3.648-0.816,4.848-2.256l0.216,2.063h1.344v-16.56H44.28z M21.552,44.647v-9.023c1.656-1.345,3.144-1.944,4.56-1.944
		c1.896,0,3.12,1.08,3.12,2.76v8.208h1.704v-8.111c0.024-2.593-1.752-4.296-4.488-4.296c-1.8,0-3.6,0.743-5.04,2.088l-0.216-1.849
		h-1.344v12.168H21.552z M6,41.384c0-1.729,1.488-2.472,5.232-2.568l1.68-0.048v1.92c-1.032,1.729-2.64,2.712-4.464,2.712
		C6.888,43.399,6,42.704,6,41.384 M9.672,33.68c2.184,0,3.24,0.84,3.24,2.544v1.248l-1.68,0.048
		c-4.752,0.12-7.056,1.416-7.056,3.984c0,2.063,1.488,3.336,3.888,3.336c2.04,0,3.816-0.912,5.016-2.521
		c0.24,1.536,1.248,2.521,2.76,2.521c0.48,0,1.056-0.096,1.608-0.288v-1.32c-0.312,0.12-0.648,0.168-0.984,0.168
		c-1.248,0.024-1.848-0.72-1.848-2.231v-5.305c0-2.256-1.656-3.623-4.488-3.623c-2.016,0-3.984,0.72-5.496,2.016l0.816,1.104
		C6.696,34.279,8.232,33.68,9.672,33.68"/>
	<path d="M212.35,17.479v-4.943c0-2.809-1.8-4.92-4.8-4.92c-2.088,0-3.576,1.008-4.536,2.376V4.088h-5.544
		c0.24,0.912,0.24,1.704,0.24,3v10.439c0,1.297,0,2.16-0.24,3.12h5.784c-0.24-0.936-0.24-1.775-0.24-3.144V13.64
		c0-1.176,0.864-2.136,2.112-2.136c1.247,0,1.92,0.936,1.92,2.664v3.84c0,1.104,0,1.824-0.24,2.64h5.784
		C212.35,19.712,212.35,18.872,212.35,17.479 M183.574,21.032c0-0.673,0.815-0.912,1.248-0.912h1.992
		c1.703,0,2.855,0.168,2.855,0.84c0,0.72-1.368,1.032-3.336,1.032C184.51,21.992,183.574,21.728,183.574,21.032 M186.67,13.496
		c-0.936,0-1.633-0.624-1.633-1.824c0-1.128,0.601-1.752,1.609-1.752c1.079,0,1.535,0.6,1.535,1.728
		C188.182,12.824,187.726,13.496,186.67,13.496 M186.094,15.728h0.408c4.488,0,7.031-1.464,7.031-3.768
		c0-0.433,0.601-0.744,1.345-0.744c0.504,0,1.08,0.144,1.584,0.504V7.903c-0.36-0.191-0.815-0.287-1.177-0.287
		c-1.271,0-2.159,1.247-2.111,2.52c-0.816-1.728-2.977-2.52-6.456-2.52c-4.392,0-6.96,1.344-6.96,4.079c0,1.801,1.2,3,3.84,3.505
		c-3,0.359-4.248,1.464-4.248,2.64c0,1.224,1.416,2.063,2.952,2.231c-1.776,0.288-3.144,0.937-3.144,2.112
		c0,1.8,3.336,2.16,7.344,2.16c4.416,0,8.424-1.368,8.424-4.392c0-1.752-1.393-3-5.904-3h-3.168c-1.104,0-1.703-0.097-1.703-0.576
		c0-0.576,0.768-0.648,1.151-0.648H186.094z M162.838,11.048v4.944c0,2.808,1.8,4.92,4.824,4.92c2.447,0,4.104-1.393,4.992-3.145
		v2.88h5.063c-0.24-0.912-0.24-1.704-0.24-3V7.88h-5.544c0.24,0.936,0.24,1.775,0.24,3.144v3.864c0,1.176-0.84,2.136-2.184,2.136
		c-1.152,0-1.849-0.936-1.849-2.664V7.88h-5.544C162.838,8.815,162.838,9.655,162.838,11.048 M151.15,16.304
		c0-1.08,0.961-1.488,2.952-1.656h0.097v0.456c0,1.32-0.937,2.496-1.896,2.496C151.703,17.6,151.15,17.144,151.15,16.304
		 M152.711,10.616c1.248,0,1.488,0.672,1.488,1.728v0.432l-0.48,0.024c-3.432,0.216-8.04,1.248-8.04,4.8
		c0,2.232,1.824,3.288,3.912,3.288c2.063,0,4.08-1.032,4.896-3.024c0.312,2.353,2.041,3.024,4.32,3.024
		c1.152,0,2.352-0.336,2.977-0.552v-2.28c-0.24,0.048-0.528,0.096-0.816,0.096c-0.721,0-1.464-0.312-1.464-1.632v-4.512
		c0-3.528-3.192-4.392-6.12-4.392c-2.592,0-5.424,0.695-7.32,3.168l2.928,2.304C149.687,12.008,150.935,10.616,152.711,10.616
		 M141.455,20.888c0.744,0,2.184-0.168,2.855-0.36l0.217-3.6c-0.529,0.384-1.129,0.672-1.896,0.672
		c-0.553,0-1.488-0.168-1.488-1.439v-5.257h3.432V7.88h-3.432V4.76h-4.104l-0.816,3.12h-2.472v3.023h2.088v5.929
		C135.839,19.616,138.047,20.888,141.455,20.888 M122.543,7.88c0.24,0.912,0.24,1.704,0.24,3v6.647c0,1.297,0,2.16-0.24,3.12h5.783
		c-0.239-0.936-0.239-1.775-0.239-3.144V14.12c0-1.561,1.128-2.112,2.544-2.112c0.888,0,1.752,0.216,2.208,0.528l0.433-4.824
		c-0.289-0.072-0.625-0.096-0.961-0.096c-2.472,0-3.984,1.56-4.703,3.407V7.88H122.543z M105.455,11.048v4.944
		c0,2.808,1.8,4.92,4.825,4.92c2.447,0,4.104-1.393,4.992-3.145v2.88h5.063c-0.24-0.912-0.24-1.704-0.24-3V7.88h-5.544
		c0.24,0.936,0.24,1.775,0.24,3.144v3.864c0,1.176-0.84,2.136-2.184,2.136c-1.152,0-1.849-0.936-1.849-2.664V7.88h-5.544
		C105.455,8.815,105.455,9.655,105.455,11.048 M102.912,5.048h-6.36c-0.192,0.888-0.504,1.824-0.888,2.76l-3.168,7.729L89.04,7.784
		c-0.432-0.937-0.744-1.849-0.984-2.736h-6c0.24,0.888,0.24,1.68,0.24,2.976v9.648c0,1.296,0,2.088-0.24,2.976h4.272
		c-0.24-0.888-0.24-1.68-0.24-2.976v-5.76l3.768,8.447h3.792l3.648-9.071v6.384c0,1.296,0,2.088-0.24,2.976h5.856
		c-0.24-0.888-0.24-1.68-0.24-2.976V8.023C102.672,6.728,102.672,5.936,102.912,5.048 M66.6,8.336c0.24,0.912,0.24,1.704,0.24,3
		v6.336c0,1.248,0,2.063-0.24,2.976h3.384c-0.24-0.888-0.24-1.68-0.24-2.976V14.12c0-2.137,1.32-3.433,3.144-3.433
		c0.768,0,1.344,0.24,1.872,0.721l0.456-3.072c-0.504-0.168-0.888-0.24-1.416-0.24c-2.448,0-3.72,1.488-4.296,3.336V8.336H66.6z
		 M57.528,9.92c2.088,0,2.928,1.2,3,3.312h-6.336C54.384,11.24,55.272,9.92,57.528,9.92 M57.648,20.888
		c2.712,0,4.872-1.08,6.312-3.264l-2.28-1.368c-0.864,1.632-1.968,2.832-3.96,2.832c-2.664,0-3.432-2.16-3.552-4.272h9.072
		l0.504-0.575c0-3.816-2.568-6.145-6.072-6.145c-3.888,0-6.648,2.832-6.648,6.744C51.024,18.824,53.904,20.888,57.648,20.888
		 M38.448,21.032c0-0.889,0.504-1.225,1.248-1.272c0.624,0.024,2.448,0.024,3.48,0.024c1.632,0,2.712,0.239,2.712,1.224
		c0,1.224-1.68,1.704-4.056,1.704C39.408,22.712,38.448,22.208,38.448,21.032 M41.904,14.744c-1.68,0-2.712-0.648-2.712-2.521
		c0-1.752,0.888-2.544,2.712-2.544c1.776,0,2.76,0.72,2.76,2.521C44.664,14.023,43.68,14.744,41.904,14.744 M41.664,16.279h0.216
		c3.768,0,5.712-1.68,5.712-4.128c0-0.768,0.48-1.56,1.464-1.56c0.384,0,0.888,0.12,1.344,0.408V8.552
		c-0.24-0.288-0.672-0.432-1.176-0.432c-0.96,0-2.016,0.768-2.184,1.991c-0.792-1.248-2.376-2.016-4.8-2.016
		c-3.36,0-5.952,1.392-5.952,4.176c0,1.776,1.032,2.952,3.048,3.456c-2.256,0.265-3.216,0.984-3.216,2.088
		c0,1.032,0.84,1.584,1.92,1.801c-1.416,0.312-2.352,1.008-2.352,2.136c0,2.184,3.552,2.592,5.952,2.592
		c4.128,0,7.104-1.224,7.104-3.84c0-1.729-1.368-2.88-4.584-2.88h-3.72C39.504,17.624,39,17.527,39,17
		c0-0.553,0.504-0.721,1.68-0.721H41.664z M27.312,19.063c-1.92,0-3.576-1.2-3.576-4.487c0-3.505,1.848-4.656,3.6-4.656
		c2.304,0,3.576,1.943,3.576,4.632C30.912,17.863,29.208,19.063,27.312,19.063 M27.216,20.888c3.912,0,6.816-2.496,6.816-6.408
		c0-4.008-3.024-6.384-6.624-6.384c-3.624,0-6.792,2.448-6.792,6.576C20.616,18.439,23.304,20.888,27.216,20.888 M10.296,12.224
		c-0.384,0-1.464-0.023-2.016-0.168v-4.8c0.6-0.12,1.656-0.145,2.016-0.145h1.968c2.424,0,3.048,1.129,3.048,2.544
		c0,1.633-0.816,2.568-2.88,2.568H10.296z M5.064,5.048c0.24,0.888,0.24,1.68,0.24,2.976v9.648c0,1.296,0,2.088-0.24,2.976H8.52
		c-0.24-0.888-0.24-1.68-0.24-2.976v-3.264c0.552-0.145,1.632-0.168,2.016-0.168h0.888c2.784,0.119,3.84,2.376,3.84,5.111
		c0,0.576,0.048,0.96,0.192,1.296h3.192c-0.144-0.384-0.24-0.888-0.264-1.319c-0.12-2.641-1.008-5.112-3.864-6.049v-0.144
		c2.568-0.336,4.248-1.2,4.248-3.912c0-2.904-1.944-4.176-6.12-4.176H5.064z"/>
</g>
</svg>
